<?xml version="1.0" standalone="no"?><!DOCTYPE svg PUBLIC "-//W3C//DTD SVG 1.1//EN" "http://www.w3.org/Graphics/SVG/1.1/DTD/svg11.dtd"><svg class="icon" width="128px" height="128.00px" viewBox="0 0 1024 1024" version="1.1" xmlns="http://www.w3.org/2000/svg"><path fill="#cdcdcd" d="M544.213333 562.773333l57.642667-57.6 21.930667 21.888 114.346666-114.346666-120.661333-120.746667-114.346667 114.389333 8.234667 8.277334-57.642667 57.6L384 402.602667 615.893333 170.666667l241.365334 241.365333-231.893334 231.893333-81.152-81.152z m-157.269333-23.722666l-59.861333 59.861333-8.277334-8.234667-114.346666 114.346667 120.661333 120.704 114.346667-114.346667-21.888-21.930666 59.861333-59.904 81.152 81.152-231.893333 231.893333L85.333333 701.226667 317.226667 469.333333l69.717333 69.717334zM573.226667 384l60.330666 60.330667-274.56 274.56L298.666667 658.56 573.226667 384z"  /></svg>