<?xml version="1.0" standalone="no"?><!DOCTYPE svg PUBLIC "-//W3C//DTD SVG 1.1//EN" "http://www.w3.org/Graphics/SVG/1.1/DTD/svg11.dtd"><svg class="icon" width="128px" height="128.00px" viewBox="0 0 1024 1024" version="1.1" xmlns="http://www.w3.org/2000/svg"><path fill="#cdcdcd" d="M255.189333 268.373333H256V725.333333H170.666667V303.530667l-96-96L134.997333 147.2l120.704 120.661333-0.512 0.512zM512 341.333333H384v256h341.333333V341.333333h-128v85.333334h-85.333333V341.333333zM298.666667 256h512v426.666667H298.666667V256z m554.666666 469.333333v85.333334H170.666667v-85.333334h682.666666zM256 896a42.666667 42.666667 0 1 1 0-85.333333 42.666667 42.666667 0 0 1 0 85.333333z m512 0a42.666667 42.666667 0 1 1 0-85.333333 42.666667 42.666667 0 0 1 0 85.333333z"  /></svg>