<?xml version="1.0" standalone="no"?><!DOCTYPE svg PUBLIC "-//W3C//DTD SVG 1.1//EN" "http://www.w3.org/Graphics/SVG/1.1/DTD/svg11.dtd"><svg class="icon" width="128px" height="128.00px" viewBox="0 0 1024 1024" version="1.1" xmlns="http://www.w3.org/2000/svg"><path fill="#cdcdcd" d="M320 384H640v85.333333H298.666667V384h21.333333zM170.666667 213.333333h597.333333v682.666667H170.666667V213.333333z m85.333333 85.333334v512h426.666667V298.666667H256z m42.666667 213.333333h85.333333v85.333333H298.666667v-85.333333z m128 0h85.333333v85.333333h-85.333333v-85.333333z m128 0h85.333333v128h-85.333333v-128z m-256 128h85.333333v85.333333H298.666667v-85.333333z m128 0h85.333333v85.333333h-85.333333v-85.333333z m128 0h85.333333v85.333333h-85.333333v-85.333333z m85.333333-170.666667H298.666667h341.333333zM170.666667 213.333333h597.333333v85.333334H170.666667V213.333333z"  /></svg>