<?xml version="1.0" standalone="no"?><!DOCTYPE svg PUBLIC "-//W3C//DTD SVG 1.1//EN" "http://www.w3.org/Graphics/SVG/1.1/DTD/svg11.dtd"><svg class="icon" width="128px" height="128.00px" viewBox="0 0 1024 1024" version="1.1" xmlns="http://www.w3.org/2000/svg"><path fill="#cdcdcd" d="M764.757333 576H725.333333v-85.333333h39.424A277.546667 277.546667 0 0 0 533.333333 259.242667V298.666667h-85.333333v-39.424A277.546667 277.546667 0 0 0 216.576 490.666667H256v85.333333h-39.424a277.546667 277.546667 0 0 0 231.424 231.424V768h85.333333v39.424a277.546667 277.546667 0 0 0 231.424-231.424zM490.666667 896a362.666667 362.666667 0 1 1 0-725.333333 362.666667 362.666667 0 0 1 0 725.333333zM298.666667 371.498667L328.832 341.333333l30.165333 30.165334-30.165333 30.165333L298.666667 371.498667z m320 320l30.165333-30.165334 30.165333 30.165334-30.165333 30.165333-30.165333-30.165333zM648.832 341.333333l30.165333 30.165334-30.165333 30.165333-30.165333-30.165333 30.165333-30.165334z m-320 320l30.165333 30.165334-30.165333 30.165333L298.666667 691.498667l30.165333-30.165334z m298.24-270.506666l-105.642667 196.138666-90.496-90.496 196.096-105.6z"  /></svg>