<?xml version="1.0" standalone="no"?><!DOCTYPE svg PUBLIC "-//W3C//DTD SVG 1.1//EN" "http://www.w3.org/Graphics/SVG/1.1/DTD/svg11.dtd"><svg t="1531186087756" class="icon" style="" viewBox="0 0 1027 1024" version="1.1" xmlns="http://www.w3.org/2000/svg" p-id="2734" xmlns:xlink="http://www.w3.org/1999/xlink" width="200.5859375" height="200"><defs><style type="text/css"></style></defs><path d="M508.55936 6.8864C227.70688 6.8864 0 234.59328 0 515.44064 0 796.29312 227.70688 1024 508.55936 1024c280.85248 0 508.55424-227.70688 508.55424-508.55936C1017.1136 234.59328 789.41184 6.8864 508.55936 6.8864zM295.18848 345.96352l276.25984 0c20.80256 0 37.65248 16.88576 37.65248 37.74976 0 20.79744-16.85504 37.62176-37.65248 37.62176L295.18848 421.33504c-20.79744 0-37.6832-16.82432-37.6832-37.62176C257.50528 362.84928 274.39104 345.96352 295.18848 345.96352zM772.3008 722.5344 295.18848 722.5344c-20.79744 0-37.6832-16.87552-37.6832-37.61664 0-20.85376 16.88576-37.74464 37.6832-37.74464l477.11232 0c20.80256 0 37.6832 16.89088 37.6832 37.74464C809.984 705.65888 793.10336 722.5344 772.3008 722.5344zM772.3008 571.81696 295.18848 571.81696c-20.79744 0-37.6832-16.82432-37.6832-37.62176 0-20.864 16.88576-37.504 37.6832-37.504l477.11232 0c20.80256 0 37.6832 16.64 37.6832 37.504C809.984 554.98752 793.10336 571.81696 772.3008 571.81696z" p-id="2735" fill="#cdcdcd"></path></svg>