<?xml version="1.0" standalone="no"?><!DOCTYPE svg PUBLIC "-//W3C//DTD SVG 1.1//EN" "http://www.w3.org/Graphics/SVG/1.1/DTD/svg11.dtd"><svg class="icon" width="128px" height="128.00px" viewBox="0 0 1024 1024" version="1.1" xmlns="http://www.w3.org/2000/svg"><path fill="#cdcdcd" d="M170.666667 213.333333h640v213.333334h-85.333334V298.666667H213.333333v128H128V213.333333h42.666667z m426.666666 213.333334v21.333333a64 64 0 0 0 128 0V426.666667h85.333334v-32 53.333333a149.333333 149.333333 0 0 1-245.333334 114.389333A148.736 148.736 0 0 1 469.333333 597.333333a148.736 148.736 0 0 1-96-34.944 148.736 148.736 0 0 1-117.333333 33.450667V768h256v85.333333H170.666667v-298.666666h2.133333A148.906667 148.906667 0 0 1 128 448V394.666667 426.666667h85.333333v21.333333a64 64 0 0 0 128 0V426.666667h64v21.333333a64 64 0 0 0 128 0V426.666667H597.333333z m256 341.333333v85.333333h-170.666666v-85.333333h170.666666z m0-128v85.333333h-170.666666v-85.333333h170.666666z m-213.333333 128v85.333333h-85.333333v-85.333333h85.333333z m0-128v85.333333h-85.333333v-85.333333h85.333333z"  /></svg>