<?xml version="1.0" standalone="no"?><!DOCTYPE svg PUBLIC "-//W3C//DTD SVG 1.1//EN" "http://www.w3.org/Graphics/SVG/1.1/DTD/svg11.dtd"><svg class="icon" width="128px" height="128.00px" viewBox="0 0 1024 1024" version="1.1" xmlns="http://www.w3.org/2000/svg"><path fill="#cdcdcd" d="M341.333333 597.333333H256v213.333334h85.333333v-213.333334z m85.333334-24.96v79.786667l63.914666 63.957333L554.666667 652.032V512h256v384h-256V772.693333l-63.402667 63.402667-0.682667-0.682667-0.682666 0.682667L426.666667 772.864V896H170.666667v-384h256v60.373333zM725.333333 597.333333h-85.333333v213.333334h85.333333v-213.333334z m85.333334-256a128 128 0 1 1-256 0 128 128 0 0 1 256 0z m-85.333334 0a42.666667 42.666667 0 1 0-85.333333 0 42.666667 42.666667 0 0 0 85.333333 0z m-298.666666 0a128 128 0 1 1-256 0 128 128 0 0 1 256 0zM341.333333 341.333333a42.666667 42.666667 0 1 0-85.333333 0 42.666667 42.666667 0 0 0 85.333333 0z"  /></svg>