<?xml version="1.0" standalone="no"?><!DOCTYPE svg PUBLIC "-//W3C//DTD SVG 1.1//EN" "http://www.w3.org/Graphics/SVG/1.1/DTD/svg11.dtd"><svg t="1524212153186" class="icon" style="" viewBox="0 0 1024 1024" version="1.1" xmlns="http://www.w3.org/2000/svg" p-id="1918" xmlns:xlink="http://www.w3.org/1999/xlink" width="200" height="200"><defs><style type="text/css"></style></defs><path d="M588.402 393.102l281.6-281.6 40.22 40.22-281.6 281.6z m281.6 514.845l-281.6-281.6 40.22-40.22 281.6 281.6z m-713.728 2.275l-40.22-40.22 281.6-281.6 40.163 40.22z" fill="#ffffff" p-id="1919"></path><path d="M568.889 426.667v28.444h284.444v-56.889H625.778V170.667h-56.89z m0 170.666V568.89h284.444v56.889H625.778v227.555h-56.89zM111.502 153.998l40.22-40.22 281.6 281.6-40.277 40.22z" fill="#ffffff" p-id="1920"></path><path d="M455.111 426.667v28.444H170.667v-56.889h227.555V170.667h56.89z m0 170.666V568.89H170.667v56.889h227.555v227.555h56.89z" fill="#ffffff" p-id="1921"></path></svg>