<?xml version="1.0" encoding="utf-8"?>
<!-- Generator: Adobe Illustrator 23.0.1, SVG Export Plug-In . SVG Version: 6.00 Build 0)  -->
<svg version="1.1" id="图层_1" xmlns="http://www.w3.org/2000/svg" xmlns:xlink="http://www.w3.org/1999/xlink" x="0px" y="0px"
	 viewBox="0 0 239.8 200" style="enable-background:new 0 0 239.8 200;" xml:space="preserve">
<style type="text/css">
	.st0{fill:#FFFFFF;}
</style>
<path class="st0" d="M183.3,16.7v166.7c0,9.2-7.5,16.7-16.7,16.7c-9.2,0-16.7-7.5-16.7-16.7V16.7C150,7.5,157.5,0,166.7,0
	C175.9,0,183.3,7.5,183.3,16.7z M116.7,16.7v166.7c0,9.2-7.5,16.7-16.7,16.7c-9.2,0-16.7-7.5-16.7-16.7V16.7C83.3,7.5,90.8,0,100,0
	C109.2,0,116.7,7.5,116.7,16.7z M50,16.7v166.7c0,9.2-7.5,16.7-16.7,16.7c-9.2,0-16.7-7.5-16.7-16.7V16.7C16.7,7.5,24.1,0,33.3,0
	C42.5,0,50,7.5,50,16.7z"/>
</svg>
