<?xml version="1.0" standalone="no"?><!DOCTYPE svg PUBLIC "-//W3C//DTD SVG 1.1//EN" "http://www.w3.org/Graphics/SVG/1.1/DTD/svg11.dtd"><svg t="1524238701430" class="icon" style="" viewBox="0 0 1024 1024" version="1.1" xmlns="http://www.w3.org/2000/svg" p-id="7161" xmlns:xlink="http://www.w3.org/1999/xlink" width="200" height="200"><defs><style type="text/css"></style></defs><path d="M896.874159 784.918833c-3.189645-74.080206-40.153512-139.807163-95.823416-182.15055L801.050744 401.738757c0-116.117624-83.069951-213.794248-192.838983-236.871849l0-4.594645c0-52.971445-43.441395-96.305393-96.534614-96.305393l0 0c-53.093219 0-96.532567 43.334971-96.532567 96.305393l0 4.594645c-109.771079 23.077601-192.838983 120.754225-192.838983 236.871849L222.305597 602.768283c-55.67195 42.343387-92.637864 108.070344-95.825462 182.15055l95.825462 0 0 0.645706 578.74617 0 0-0.645706L896.874159 784.918833 896.874159 784.918833 896.874159 784.918833zM491.30926 959.568549l23.961738 0c62.814628 0 115.037013-47.376007 122.627898-108.070344L385.724527 851.498204c7.589862 60.695361 59.816341 108.070344 122.624828 108.070344L491.30926 959.568549 491.30926 959.568549zM491.30926 959.568549" p-id="7162"></path></svg>