<?xml version="1.0" standalone="no"?><!DOCTYPE svg PUBLIC "-//W3C//DTD SVG 1.1//EN" "http://www.w3.org/Graphics/SVG/1.1/DTD/svg11.dtd"><svg class="icon" width="128px" height="128.00px" viewBox="0 0 1024 1024" version="1.1" xmlns="http://www.w3.org/2000/svg"><path fill="#cdcdcd" d="M533.333333 765.184V810.666667H682.666667v85.333333H298.666667v-85.333333h149.333333v-45.482667a320.042667 320.042667 0 0 1 0-634.368V128h85.333333v2.816a320.042667 320.042667 0 0 1 0 634.368zM490.666667 682.666667a234.666667 234.666667 0 1 0 0-469.333334 234.666667 234.666667 0 0 0 0 469.333334z m0-170.666667a64 64 0 1 1 0-128 64 64 0 0 1 0 128z"  /></svg>