<?xml version="1.0" standalone="no"?><!DOCTYPE svg PUBLIC "-//W3C//DTD SVG 1.1//EN" "http://www.w3.org/Graphics/SVG/1.1/DTD/svg11.dtd"><svg t="1531395247250" class="icon" style="" viewBox="0 0 1024 1024" version="1.1" xmlns="http://www.w3.org/2000/svg" p-id="10136" xmlns:xlink="http://www.w3.org/1999/xlink" width="200" height="200"><defs><style type="text/css"></style></defs><path d="M810.304 246.016H541.888a20.288 20.288 0 0 0-20.16 20.352c0 11.392 9.088 20.416 20.16 20.416h268.416a20.224 20.224 0 0 0 20.16-20.416 20.16 20.16 0 0 0-20.16-20.352z m0 101.632H541.888c-11.136 0-20.16 9.216-20.16 20.416s9.024 20.416 20.16 20.416h268.416c11.2 0 20.16-9.216 20.16-20.416s-8.96-20.416-20.16-20.416zM634.496 469.76a20.352 20.352 0 0 0-20.16-20.352H541.888a20.352 20.352 0 0 0-20.16 20.352c0 11.328 9.088 20.48 20.16 20.48h72.448a20.352 20.352 0 0 0 20.16-20.48z m-361.472 31.296a74.368 74.368 0 0 1-16.384 12.864 106.24 106.24 0 0 1-31.616 13.504 465.6 465.6 0 0 0-34.56 10.56 100.48 100.48 0 0 0-29.056 16.128 42.88 42.88 0 0 0-15.104 29.184c-3.392 22.464-4.224 40.768-2.304 54.912 1.856 14.144 4.48 22.592 7.936 25.408a43.456 43.456 0 0 0 14.784 5.12c7.872 1.728 17.408 3.52 28.672 5.12 11.264 1.728 23.744 3.392 37.504 4.928a1480.32 1480.32 0 0 0 82.24 6.976 592.704 592.704 0 0 0 69.504 0 1391.36 1391.36 0 0 0 85.824-7.168c8.256-1.024 15.872-2.112 23.232-3.264v-144.64c-2.752-0.768-5.248-1.472-7.936-2.112a258.624 258.624 0 0 1-27.904-9.472 72.128 72.128 0 0 1-22.144-12.864 52.928 52.928 0 0 1-11.776-15.232 44.16 44.16 0 0 1-4.288-16.064 59.264 59.264 0 0 1 1.024-15.808c1.344-8.576 4.096-14.72 8.192-18.304 4.096-3.712 9.344-8.064 15.744-13.248a33.728 33.728 0 0 0 7.424-10.112c2.24-4.352 4.16-8.768 5.824-13.248 1.792-5.12 3.52-10.688 5.184-16.512a26.944 26.944 0 0 0 9.728-5.76 33.408 33.408 0 0 0 7.424-10.112 46.208 46.208 0 0 0 4.352-17.28 36.352 36.352 0 0 0-3.584-23.232 18.176 18.176 0 0 0-5.696-6.72c0-14.208-0.768-28.16-2.496-41.92a260.224 260.224 0 0 0-8.704-38.144 108.736 108.736 0 0 0-19.456-36.352 78.208 78.208 0 0 0-15.488-14.592 122.88 122.88 0 0 0-22.784-12.864 149.504 149.504 0 0 0-27.392-9.088 125.76 125.76 0 0 0-29.376-3.392c-7.808 0-15.872 0.64-24.256 1.792a110.08 110.08 0 0 0-49.472 21.248 98.88 98.88 0 0 0-21.76 23.488 110.144 110.144 0 0 0-16.064 34.24 245.888 245.888 0 0 0-9.408 75.008 32 32 0 0 0-6.656 10.88 45.44 45.44 0 0 0-2.88 12.48 37.056 37.056 0 0 0 2.304 16 39.936 39.936 0 0 0 12.864 20.736 25.536 25.536 0 0 0 7.04 3.648c1.792 5.824 3.456 11.392 5.12 16.512 1.728 4.48 3.648 8.896 5.568 13.248 2.112 4.224 4.48 7.616 7.232 10.048 5.76 4.8 11.072 9.472 15.808 14.208s7.488 10.944 8.128 18.944c0.384 5.504 0.576 10.496 0.576 14.976s-0.896 8.768-2.56 12.928a43.008 43.008 0 0 1-8.128 12.416z m-167.744 228.48a52.8 52.8 0 0 1-46.784-52.608V165.184c0-29.056 23.488-50.688 52.16-50.688h763.712c28.672 0 54.4 21.632 54.4 50.688v317.504c12.8 10.176 39.68 21.376 50.432 33.6V132.032c0-39.04-49.344-68.032-87.808-68.032H78.016C39.488 64 8 108.032 8 147.136v547.2c0 36.608 27.584 81.984 62.72 85.76h435.008c-3.136-11.456-5.44-38.464-7.04-50.496H105.28v-0.064z m547.968-33.216a23.936 23.936 0 0 0-17.088 7.616 24.128 24.128 0 0 0-6.272 17.344 24.064 24.064 0 0 0 7.424 16.64l100.352 94.592a24.32 24.32 0 0 0 18.368 6.4 24.448 24.448 0 0 0 16.96-9.728l135.296-186.432a24.256 24.256 0 0 0-5.12-33.6 24.128 24.128 0 0 0-33.216 5.12l-119.488 164.736-80.768-76.16a22.528 22.528 0 0 0-16.448-6.528m124.928-218.176c-131.392 0-237.888 107.84-237.888 240.96 0 133.056 106.496 240.96 237.888 240.96 131.264 0 237.824-107.904 237.824-240.96 0-133.184-106.56-240.96-237.824-240.96z m0 436.608c-106.752 0-193.28-87.616-193.28-195.712 0-108.096 86.528-195.776 193.28-195.776 106.624 0 193.216 87.616 193.216 195.776 0 108.096-86.592 195.712-193.216 195.712z m0 0" fill="#323333" p-id="10137"></path></svg>