<?xml version="1.0" encoding="utf-8"?>
<!-- Generator: Adobe Illustrator 21.0.0, SVG Export Plug-In . SVG Version: 6.00 Build 0)  -->
<svg version="1.2" baseProfile="tiny" id="图层_1"
	 xmlns="http://www.w3.org/2000/svg" xmlns:xlink="http://www.w3.org/1999/xlink" x="0px" y="0px" viewBox="0 0 663.1 234"
	 xml:space="preserve">
<path fill="#FFFFFF" d="M25.2,212.4v-42.3h34.9c3,0,5.1,0.6,6.4,1.7c1.2,1.1,1.8,3,1.8,5.7v10.1c0,2.6-0.6,4.5-1.8,5.6
	c-1.2,1.1-3.4,1.7-6.4,1.7H30v17.6H25.2z M30,191.7h27.2c2.2,0,3.8-0.5,4.8-1.5c1-1,1.4-2.5,1.4-4.6v-6.3c0-2.1-0.5-3.7-1.4-4.7
	c-1-1-2.6-1.5-4.8-1.5H30V191.7z"/>
<polygon fill="#FFFFFF" points="85.9,212.4 85.9,179.2 119.3,179.2 119.3,182.7 90.8,182.7 90.8,193.4 108,193.4 108,196.8 
	90.8,196.8 90.8,209.1 119.6,209.1 119.6,212.4 "/>
<path fill="#FFFFFF" d="M140.6,212.4c-0.8,0-1.5,0-2.2-0.1c-1.9-0.2-3.3-0.6-4-1.4c-1-1-1.5-2.9-1.5-5.9v-18.4
	c0-2.9,0.5-4.9,1.6-5.9c1-1,3.1-1.5,6.1-1.5h25.2c3.1,0,5.1,0.5,6.2,1.5c1,1,1.5,3,1.5,5.9V205c0,2.9-0.5,4.9-1.5,5.9
	c-0.7,0.7-2.1,1.2-4,1.4c-0.7,0.1-1.4,0.1-2.2,0.1H140.6z M137.8,208.9h30.9v-26.2h-30.9V208.9z"/>
<path fill="#FFFFFF" d="M190.6,212.4v-33.2h28.6c2.5,0,4.3,0.5,5.3,1.4c1,0.9,1.5,2.4,1.5,4.5v7.8c0,2.1-0.5,3.6-1.5,4.4
	c-0.5,0.4-1.2,0.8-2.1,1c-0.5,0.1-0.9,0.2-1.4,0.3c-0.5,0-1.1,0.1-1.8,0.1h-23.8v13.7H190.6z M195.5,195.4h20.8c1.7,0,2.9-0.3,3.6-1
	c0.8-0.7,1.2-1.7,1.2-3.2v-4.4c0-1.5-0.4-2.6-1.2-3.2c-0.7-0.7-2-1-3.7-1h-20.8V195.4z"/>
<polygon fill="#FFFFFF" points="240.6,212.4 240.6,179.2 245.4,179.2 245.4,208.9 272.6,208.9 272.6,212.4 "/>
<polygon fill="#FFFFFF" points="284.7,212.4 284.7,179.2 318.1,179.2 318.1,182.7 289.5,182.7 289.5,193.4 306.7,193.4 306.7,196.8 
	289.5,196.8 289.5,209.1 318.4,209.1 318.4,212.4 "/>
<path fill="#FFFFFF" d="M397.3,212.4l-9.8-8.1l-6,5.8c-1,0.9-1.9,1.5-2.7,1.8c-0.6,0.2-1.8,0.5-4.2,0.5h-14.8
	c-3.7,0-6.2-0.6-7.4-1.8c-1.2-1.2-1.8-3.8-1.8-7.4v-2.9c0-1.7,0.3-3.1,0.8-4c0.4-0.6,1.3-1.7,3.8-3.2l10.2-6.5l-1.4-1.2
	c-1.2-1.1-2-2-2.5-3c-0.5-0.9-0.7-1.8-0.7-2.8V177c0-2.5,0.6-4.3,1.8-5.3c0.9-0.7,2.9-1.6,7.3-1.6h8.5c4.6,0,6.5,0.9,7.4,1.6
	c1.1,1,1.7,3.1,1.7,6.1v1.2l-3.2,0.6v-6.8h-20v8.6l23.3,19.1l10.4-9.8l1.8,1.7l-10.2,9.7l12.5,10.2H397.3z M354.2,197.2v12.3H378
	l7.5-6.9L367.2,188L354.2,197.2z"/>
<path fill="#FFFFFF" d="M435.4,212.4v-42.3h23.4c4,0,7.4,0.3,10.1,0.8c2.6,0.5,4.7,1.4,6.5,2.5c2.7,1.8,4.8,4.2,6.4,7.3
	c1.6,3.1,2.3,6.6,2.3,10.3c0,4-0.8,7.6-2.3,10.8c-1.5,3.1-3.7,5.6-6.4,7.4c-1.7,1.1-3.9,1.9-6.4,2.5c-2.7,0.5-6.1,0.8-10.1,0.8
	H435.4z M440.2,208.9h17.6c7.7,0,13.1-1.4,16.4-4.2c3.3-2.8,5-7.5,5-13.8c0-6.1-1.7-10.6-5.1-13.4c-3.4-2.7-8.7-4.1-16.3-4.1h-17.6
	V208.9z"/>
<path fill="#FFFFFF" d="M491.1,212.4l19.2-33.2h5.1l19.7,33.2h-5.1l-4.5-8.2h-25.2l-4.5,8.2H491.1z M501.9,201h21.6l-10.8-19.3
	L501.9,201z"/>
<polygon fill="#FFFFFF" points="553.6,212.4 553.6,182.6 537.1,182.6 537.1,179.2 575,179.2 575,182.6 558.4,182.6 558.4,212.4 "/>
<path fill="#FFFFFF" d="M617.5,212.4l-4.6-8.2h-25.2l-4.5,8.2h-4.6l19.2-33.2h5l19.7,33.2H617.5z M589.5,201h21.6l-10.8-19.3
	L589.5,201z"/>
<polygon fill="#FFFFFF" points="81.3,37.1 66.9,37.1 22.8,136.8 37.8,136.8 69.4,64.4 69.3,64.4 "/>
<polygon fill="#FFFFFF" points="76.7,64.4 110.2,136.8 124.1,136.8 90.7,64.4 "/>
<polygon fill="#FFFFFF" points="454.2,54.7 443.6,54.7 436.1,78.6 428.8,54.7 418.1,54.7 430.8,95.7 417.7,136.8 428.7,136.8 
	436.2,112.8 443.6,136.8 454.6,136.8 441.5,95.6 "/>
<path fill="#FFFFFF" d="M401.4,84.2l-12.7,0.1v9.4h-27.1v-9.9l-12.7-0.1v10H345v0.1v2v5.7h3.9v13.1l16.9,11l-19.3,11.3h19l9.2-5.4
	l8.1,5.4h21.3L383.2,125l18.1-10.4v-13.1h4v-7.9h-4V84.2z M388.7,112.1l-13.9,8l-13.2-7.8v-10.8h27.1V112.1z"/>
<polygon fill="#FFFFFF" points="402.6,37.1 394.8,37.1 392.8,52.6 381.3,52.6 381.3,37.1 369.1,37.1 369.1,52.6 359.9,52.6 
	357.1,52.6 355.4,37.1 347.6,37.1 349.3,52.6 345,52.6 345,52.8 345,54.8 345,60.5 351.6,60.5 350.7,79.5 358.7,79.5 359.6,60.5 
	369.1,60.5 369.1,79.5 381.3,79.5 381.3,60.5 392.1,60.5 393.1,79.5 401.2,79.5 400.1,60.5 405.3,60.5 405.3,52.6 400.6,52.6 "/>
<polygon fill="#FFFFFF" points="427.1,37.1 415.3,37.1 415.3,40.9 415.3,43 415.3,48.8 456.7,48.8 456.7,43 456.7,40.9 427.1,40.9 
	"/>
<polygon fill="#F1B200" points="180.5,136.8 189.6,136.8 190.6,76.1 181.5,76.1 "/>
<polygon fill="#F1B200" points="227.4,76.1 228.8,136.8 237.8,136.8 236.5,76.1 "/>
<path fill="#F1B200" d="M250.3,136.8h5.4h34.6v-6.5V46.5V40v-1h-40V136.8z M278.5,130.3h-16.3V46.6h16.3V130.3z"/>
<polygon fill="#F1B200" points="178.8,40.2 178.8,42.3 178.8,46.6 203,46.6 203,62.5 178.8,62.5 178.8,64.5 178.8,69 203,69 
	203,136.8 215.2,136.8 215.2,69 241,69 241,62.5 239.5,62.5 215.2,62.5 215.2,46.6 241,46.6 241,40 178.8,40 "/>
<path fill="#FFFFFF" d="M621.7,37.1H618V37h-53.2v0.1h-10.2v99.8H566V62.6h55.8V37.1z M566,44.9h44.4v9.8H566V44.9z"/>
<path fill="#FFFFFF" d="M605.3,80.1v-5.9h-11v5.9h-16.6v0h-9.1V88h25.6v11.5H580v0h-1.9v37.3h1.9h41.5h0V129h0v-21.6h0v-7.9h-16.3
	V88h16.6v-5.9v-1.9v0H605.3z M610,129h-20.5v-21.6H610V129z"/>
<polygon fill="#FFFFFF" points="543.7,79.9 535.9,81.3 535.9,48.8 543.7,48.8 543.7,40.9 543.6,40.9 535.9,40.9 535.9,37.1 
	523,37.1 523,40.9 510.4,40.9 510.4,43 510.4,48.8 523,48.8 523,83.7 510.4,86 510.4,87 510.4,89.3 510.4,92.6 523,90.3 523,130.3 
	509.7,130.3 509.7,136.8 510.4,136.8 531.5,136.8 535.9,136.8 535.9,87.9 543.7,86.5 543.7,82.8 543.7,82.8 543.7,80.5 543.7,80.5 
	"/>
<rect x="150.9" y="39.2" fill="#FFFFFF" width="1.1" height="97.5"/>
<rect x="317.1" y="39.2" fill="#FFFFFF" width="1.1" height="97.5"/>
<rect x="481.8" y="39.2" fill="#FFFFFF" width="1.1" height="97.5"/>
</svg>
