<?xml version="1.0" encoding="utf-8"?>
<!-- Generator: Adobe Illustrator 21.0.0, SVG Export Plug-In . SVG Version: 6.00 Build 0)  -->
<svg version="1.2" baseProfile="tiny" id="图层_1"
	 xmlns="http://www.w3.org/2000/svg" xmlns:xlink="http://www.w3.org/1999/xlink" x="0px" y="0px" viewBox="0 0 975.1 339.9"
	 xml:space="preserve">
<polygon fill="#3C3C40" points="184.1,194.7 218.1,322.1 243.4,322.1 206.7,184.5 "/>
<polygon fill="#3C3C40" points="195.6,143.2 185.2,104.3 162.6,114.4 173,153.3 "/>
<polygon fill="#3C3C40" points="59.1,120.6 84.7,109.1 86.4,90.6 92.6,21.9 68.1,21.9 "/>
<polygon fill="#3C3C40" points="40.8,322.1 65.3,322.1 83.7,119.5 58.2,130.9 "/>
<path fill="#3C3C40" d="M83.6,229.9l132.8-59.6c0,0,11.8-6.2,14.6-8.5c3.2-2.6,9.6-7.9,13.7-16.6c4.1-8.7,7.8-17.9,6.4-41.1
	c-2.5-19.8-20-43.3-32.6-50.3c-12.6-7-28.4-10.8-44.7-8.3c-10.2,1.5-18.4,5-18.4,5L86.8,81.4l-2.5,27.9l80.4-36.5
	c0,0,18.6-9.4,41.2,3.3c22.8,12.8,20.3,39.6,20.3,39.6s-0.4,11.8-12,25.6c-4.9,5-10,7.6-11.9,8.5C200.7,150.7,86.1,202,86.1,202"/>
<path fill="#3C3C40" d="M342.9,276.8v-42.3h34.9c3,0,5.1,0.6,6.4,1.7c1.2,1.1,1.8,3,1.8,5.7v10.1c0,2.6-0.6,4.5-1.8,5.6
	c-1.2,1.1-3.4,1.7-6.4,1.7h-30.2v17.6H342.9z M347.6,256.1h27.2c2.2,0,3.8-0.5,4.8-1.5c1-1,1.4-2.5,1.4-4.6v-6.3
	c0-2.1-0.5-3.7-1.4-4.7c-1-1-2.6-1.5-4.8-1.5h-27.2V256.1z"/>
<polygon fill="#3C3C40" points="403.5,276.8 403.5,243.7 436.9,243.7 436.9,247.1 408.4,247.1 408.4,257.8 425.6,257.8 425.6,261.3 
	408.4,261.3 408.4,273.5 437.3,273.5 437.3,276.8 "/>
<path fill="#3C3C40" d="M458.3,276.8c-0.8,0-1.5,0-2.2-0.1c-1.9-0.2-3.3-0.6-4-1.4c-1-1-1.5-2.9-1.5-5.9v-18.4
	c0-2.9,0.5-4.9,1.6-5.9c1-1,3.1-1.5,6.1-1.5h25.2c3.1,0,5.1,0.5,6.2,1.5c1,1,1.5,3,1.5,5.9v18.4c0,2.9-0.5,4.9-1.5,5.9
	c-0.7,0.7-2.1,1.2-4,1.4c-0.7,0.1-1.4,0.1-2.2,0.1H458.3z M455.4,273.3h30.9v-26.2h-30.9V273.3z"/>
<path fill="#3C3C40" d="M508.3,276.8v-33.2h28.6c2.5,0,4.3,0.5,5.3,1.4c1,0.9,1.5,2.4,1.5,4.5v7.8c0,2.1-0.5,3.6-1.5,4.4
	c-0.5,0.4-1.2,0.8-2.1,1c-0.5,0.1-0.9,0.2-1.4,0.3c-0.5,0-1.1,0.1-1.8,0.1h-23.8v13.7H508.3z M513.1,259.8h20.8c1.7,0,2.9-0.3,3.6-1
	c0.8-0.7,1.2-1.7,1.2-3.2v-4.4c0-1.5-0.4-2.6-1.2-3.2c-0.7-0.7-2-1-3.7-1h-20.8V259.8z"/>
<polygon fill="#3C3C40" points="558.2,276.8 558.2,243.7 563,243.7 563,273.3 590.2,273.3 590.2,276.8 "/>
<polygon fill="#3C3C40" points="602.3,276.8 602.3,243.7 635.7,243.7 635.7,247.1 607.1,247.1 607.1,257.8 624.4,257.8 624.4,261.3 
	607.1,261.3 607.1,273.5 636,273.5 636,276.8 "/>
<path fill="#3C3C40" d="M715,276.8l-9.8-8.1l-6,5.8c-1,0.9-1.9,1.5-2.7,1.8c-0.6,0.2-1.8,0.5-4.2,0.5h-14.8c-3.7,0-6.2-0.6-7.4-1.8
	c-1.2-1.2-1.8-3.8-1.8-7.4v-2.9c0-1.7,0.3-3.1,0.8-4c0.4-0.6,1.3-1.7,3.8-3.2l10.2-6.5l-1.4-1.2c-1.2-1.1-2-2-2.5-3
	c-0.5-0.9-0.7-1.8-0.7-2.8v-2.5c0-2.5,0.6-4.3,1.8-5.3c0.9-0.7,2.9-1.6,7.3-1.6h8.5c4.6,0,6.5,0.9,7.4,1.6c1.1,1,1.7,3.1,1.7,6.1
	v1.2L702,244v-6.8h-20v8.6l23.3,19.1l10.4-9.8l1.8,1.7l-10.2,9.7l12.5,10.2H715z M671.8,261.6v12.3h23.8l7.5-6.9l-18.3-14.6
	L671.8,261.6z"/>
<path fill="#3C3C40" d="M753,276.8v-42.3h23.4c4,0,7.4,0.3,10.1,0.8c2.6,0.5,4.7,1.4,6.5,2.5c2.7,1.8,4.8,4.2,6.4,7.3
	c1.6,3.1,2.3,6.6,2.3,10.3c0,4-0.8,7.6-2.3,10.8c-1.5,3.1-3.7,5.6-6.4,7.4c-1.7,1.1-3.9,1.9-6.4,2.5c-2.7,0.5-6.1,0.8-10.1,0.8H753z
	 M757.8,273.3h17.6c7.7,0,13.1-1.4,16.4-4.2c3.3-2.8,5-7.5,5-13.8c0-6.1-1.7-10.6-5.1-13.4c-3.4-2.7-8.7-4.1-16.3-4.1h-17.6V273.3z"
	/>
<path fill="#3C3C40" d="M808.7,276.8l19.2-33.2h5.1l19.7,33.2h-5.1l-4.5-8.2h-25.2l-4.5,8.2H808.7z M819.6,265.4h21.6l-10.8-19.3
	L819.6,265.4z"/>
<polygon fill="#3C3C40" points="871.3,276.8 871.3,247.1 854.7,247.1 854.7,243.6 892.6,243.6 892.6,247.1 876.1,247.1 876.1,276.8 
	"/>
<path fill="#3C3C40" d="M935.1,276.8l-4.6-8.2h-25.2l-4.5,8.2h-4.6l19.2-33.2h5l19.7,33.2H935.1z M907.1,265.4h21.6l-10.8-19.3
	L907.1,265.4z"/>
<polygon fill="#3C3C40" points="398.9,101.5 384.5,101.5 340.4,201.2 355.4,201.2 387,128.8 387,128.8 "/>
<polygon fill="#3C3C40" points="394.3,128.8 427.9,201.2 441.7,201.2 408.4,128.8 "/>
<polygon fill="#3C3C40" points="771.8,119.1 761.2,119.1 753.8,143 746.4,119.1 735.7,119.1 748.4,160.1 735.3,201.2 746.3,201.2 
	753.8,177.2 761.3,201.2 772.2,201.2 759.1,160 "/>
<path fill="#3C3C40" d="M719,148.6l-12.7,0.1v9.4h-27.1v-9.9l-12.7-0.1v10h-3.9v0.1v2v5.7h3.9V179l16.9,11L664,201.2h19l9.2-5.4
	l8.1,5.4h21.3l-20.7-11.8L719,179v-13.1h4v-7.9h-4V148.6z M706.3,176.5l-13.9,8l-13.2-7.8v-10.8h27.1V176.5z"/>
<polygon fill="#3C3C40" points="720.2,101.5 712.4,101.5 710.4,117 698.9,117 698.9,101.5 686.7,101.5 686.7,117 677.5,117 
	674.7,117 673,101.5 665.2,101.5 666.9,117 662.6,117 662.6,117.2 662.6,119.2 662.6,124.9 669.3,124.9 668.3,143.9 676.4,143.9 
	677.2,124.9 686.7,124.9 686.7,143.9 698.9,143.9 698.9,124.9 709.7,124.9 710.7,143.9 718.8,143.9 717.8,124.9 723,124.9 723,117 
	718.2,117 "/>
<polygon fill="#3C3C40" points="744.7,101.5 733,101.5 733,105.4 733,107.5 733,113.2 774.4,113.2 774.4,107.5 774.4,105.4 
	744.7,105.4 "/>
<polygon fill="#F2B300" points="498.1,201.2 507.2,201.2 508.2,140.5 499.1,140.5 "/>
<polygon fill="#F2B300" points="545,140.5 546.4,201.2 555.5,201.2 554.1,140.5 "/>
<path fill="#F2B300" d="M567.9,201.2h5.4h34.6v-6.5V111v-6.5v-1h-40V201.2z M596.1,194.8h-16.3V111h16.3V194.8z"/>
<polygon fill="#F2B300" points="496.4,104.6 496.4,106.7 496.4,111 520.6,111 520.6,126.9 496.4,126.9 496.4,128.9 496.4,133.4 
	520.6,133.4 520.6,201.2 532.8,201.2 532.8,133.4 558.6,133.4 558.6,126.9 557.2,126.9 532.8,126.9 532.8,111 558.6,111 
	558.6,104.5 496.4,104.5 "/>
<path fill="#3C3C40" d="M939.4,101.5h-3.8v-0.1h-53.2v0.1h-10.2v99.8h11.4V127h55.8V101.5z M883.6,109.3H928v9.8h-44.4V109.3z"/>
<path fill="#3C3C40" d="M922.9,144.5v-5.9h-11v5.9h-16.6v0h-9.1v7.9h25.6v11.5h-14.3v0h-1.9v37.3h1.9h41.5h0v-7.9h0v-21.6h0v-7.9
	h-16.3v-11.5h16.6v-5.9v-1.9v0H922.9z M927.7,193.4h-20.5v-21.6h20.5V193.4z"/>
<polygon fill="#3C3C40" points="861.3,144.3 853.6,145.7 853.6,113.2 861.3,113.2 861.3,105.3 861.2,105.3 853.6,105.3 853.6,101.5 
	840.6,101.5 840.6,105.3 828,105.3 828,107.5 828,113.2 840.6,113.2 840.6,148.1 828,150.4 828,151.4 828,153.8 828,157 
	840.6,154.7 840.6,194.7 827.3,194.7 827.3,201.2 828,201.2 849.1,201.2 853.6,201.2 853.6,152.3 861.3,150.9 861.3,147.2 
	861.3,147.2 861.3,144.9 861.3,144.9 "/>
<rect x="468.5" y="103.6" fill="#3C3C40" width="1.1" height="97.5"/>
<rect x="634.7" y="103.6" fill="#3C3C40" width="1.1" height="97.5"/>
<rect x="799.4" y="103.6" fill="#3C3C40" width="1.1" height="97.5"/>
</svg>
