<?xml version="1.0" standalone="no"?><!DOCTYPE svg PUBLIC "-//W3C//DTD SVG 1.1//EN" "http://www.w3.org/Graphics/SVG/1.1/DTD/svg11.dtd"><svg class="icon" width="128px" height="128.00px" viewBox="0 0 1024 1024" version="1.1" xmlns="http://www.w3.org/2000/svg"><path fill="#cdcdcd" d="M737.706667 295.594667l33.024-33.024a256 256 0 0 1-261.802667 412.586666l-205.226667 205.226667-30.165333 30.208-150.826667-150.869333-30.208-30.165334 235.434667-235.392a256 256 0 0 1 412.586667-261.76l-33.024 33.024-87.04 87.04-60.288-60.373333 33.834666-33.877333a170.666667 170.666667 0 1 0 150.869334 150.869333l-33.877334 33.877333-60.330666-60.373333 87.04-87.04zM213.205333 729.557333l60.330667 60.330667 153.344-153.344a257.706667 257.706667 0 0 1-60.330667-60.330667l-153.344 153.344z m497.792-286.592l-60.330666 60.330667-150.869334-150.869333 60.373334-60.330667 150.826666 150.869333z"  /></svg>