<?xml version="1.0" standalone="no"?><!DOCTYPE svg PUBLIC "-//W3C//DTD SVG 1.1//EN" "http://www.w3.org/Graphics/SVG/1.1/DTD/svg11.dtd"><svg class="icon" width="128px" height="128.00px" viewBox="0 0 1024 1024" version="1.1" xmlns="http://www.w3.org/2000/svg"><path fill="#cdcdcd" d="M170.666667 572.544l-123.733334-71.125333L153.813333 439.466667 44.8 376.32l338.901333-194.858667 106.752 61.866667 0.213334-0.128 1.152 0.682667 107.648-62.421334 338.901333 194.858667-107.946667 62.549333 107.946667 62.549334L810.666667 574.805333v136.490667l-320 184.448L170.666667 711.296v-138.752z m103.722666-112.768l218.282667 125.44 202.325333-116.266667 13.696-8.106666-218.026666-125.738667-216.277334 124.672zM256 621.653333v47.018667l192 110.72v-119.125333l-62.165333 36.010666L256 621.568z m469.333333 2.261334l-125.866666 72.362666-66.133334-38.314666v121.429333L725.333333 668.586667v-44.757334z"  /></svg>