<?xml version="1.0" standalone="no"?><!DOCTYPE svg PUBLIC "-//W3C//DTD SVG 1.1//EN" "http://www.w3.org/Graphics/SVG/1.1/DTD/svg11.dtd"><svg class="icon" width="128px" height="128.00px" viewBox="0 0 1024 1024" version="1.1" xmlns="http://www.w3.org/2000/svg"><path fill="#cdcdcd" d="M490.666667 170.666667c119.04 64 218.453333 119.466667 320 170.666666 0 227.541333-106.666667 455.125333-320 597.333334C277.333333 796.458667 170.666667 568.874667 170.666667 341.333333c93.226667-51.2 199.893333-106.666667 320-170.666666z m-57.6 123.221333l-35.626667 18.858667-34.56 18.304c-44.544 23.594667-77.952 41.472-107.861333 57.728a569.130667 569.130667 0 0 0 235.605333 442.752A569.002667 569.002667 0 0 0 726.186667 389.546667c-23.466667-12.074667-48.085333-24.96-75.434667-39.552-27.904-14.890667-118.954667-64.256-160.213333-86.613334l-57.429334 30.464z"  /></svg>