<?xml version="1.0" standalone="no"?><!DOCTYPE svg PUBLIC "-//W3C//DTD SVG 1.1//EN" "http://www.w3.org/Graphics/SVG/1.1/DTD/svg11.dtd"><svg class="icon" width="128px" height="128.00px" viewBox="0 0 1024 1024" version="1.1" xmlns="http://www.w3.org/2000/svg"><path fill="#cdcdcd" d="M341.333333 768h277.333334-21.333334V298.666667H256v469.333333h85.333333z m-170.666666 0V213.333333h512v533.333334a21.333333 21.333333 0 0 0 42.666666-0.298667V426.666667h-42.666666V341.333333h128v426.666667a85.333333 85.333333 0 0 1-85.333334 85.333333H256a85.333333 85.333333 0 0 1-85.333333-85.333333zM298.666667 341.333333h256v85.333334H298.666667V341.333333z m0 128h256v85.333334H298.666667v-85.333334z m0 128h170.666666v85.333334H298.666667v-85.333334z"  /></svg>